<svg width="400" height="100" viewBox="0 0 400 100" fill="none" xmlns="http://www.w3.org/2000/svg">
<g clip-path="url(#clip0_147_36)">
<mask id="path-1-outside-1_147_36" maskUnits="userSpaceOnUse" x="61" y="23" width="340" height="45" fill="black">
<rect fill="white" x="61" y="23" width="340" height="45"/>
<path d="M66.0078 34.1953C66.0078 33.5391 66.1328 32.9219 66.3828 32.3438C66.6328 31.75 66.9766 31.2422 67.4141 30.8203C67.8516 30.3828 68.3594 30.0391 68.9375 29.7891C69.5312 29.5234 70.1562 29.3906 70.8125 29.3906H89.0469C89.7031 29.3906 90.3203 29.5234 90.8984 29.7891C91.4922 30.0391 92.0078 30.3828 92.4453 30.8203C92.8828 31.2422 93.2266 31.75 93.4766 32.3438C93.7266 32.9219 93.8516 33.5391 93.8516 34.1953V38.5312H89.0469V34.1953H70.8125V58.1953H89.0469V53.8828H93.8516V58.1953C93.8516 58.8516 93.7266 59.4766 93.4766 60.0703C93.2266 60.6484 92.8828 61.1562 92.4453 61.5938C92.0078 62.0312 91.4922 62.375 90.8984 62.625C90.3203 62.875 89.7031 63 89.0469 63H70.8125C70.1562 63 69.5312 62.875 68.9375 62.625C68.3594 62.375 67.8516 62.0312 67.4141 61.5938C66.9766 61.1562 66.6328 60.6484 66.3828 60.0703C66.1328 59.4766 66.0078 58.8516 66.0078 58.1953V34.1953ZM106.422 38.0391V63H101.805V38.0391H106.422ZM101.57 28.4297H106.656V33.2344H101.57V28.4297ZM114.867 42.6562C114.867 42.0156 114.984 41.4141 115.219 40.8516C115.469 40.2891 115.797 39.8047 116.203 39.3984C116.625 38.9766 117.117 38.6484 117.68 38.4141C118.242 38.1641 118.836 38.0391 119.461 38.0391H132.328V28.4297H136.945V63H132.328V58.7812C132.281 59.3594 132.125 59.9062 131.859 60.4219C131.594 60.9375 131.25 61.3906 130.828 61.7812C130.422 62.1562 129.953 62.4531 129.422 62.6719C128.891 62.8906 128.328 63 127.734 63H119.461C118.836 63 118.242 62.8828 117.68 62.6484C117.117 62.3984 116.625 62.0703 116.203 61.6641C115.797 61.2422 115.469 60.75 115.219 60.1875C114.984 59.625 114.867 59.0234 114.867 58.3828V42.6562ZM119.461 58.3828H132.328V42.6562H119.461V58.3828ZM166.25 52.875H149.727V58.3828H166.25V63H149.727C149.102 63 148.508 62.8828 147.945 62.6484C147.383 62.3984 146.891 62.0703 146.469 61.6641C146.062 61.2422 145.734 60.75 145.484 60.1875C145.25 59.625 145.133 59.0234 145.133 58.3828V42.6562C145.133 42.0156 145.25 41.4141 145.484 40.8516C145.734 40.2891 146.062 39.8047 146.469 39.3984C146.891 38.9766 147.383 38.6484 147.945 38.4141C148.508 38.1641 149.102 38.0391 149.727 38.0391H161.633C162.273 38.0391 162.875 38.1641 163.438 38.4141C164 38.6484 164.484 38.9766 164.891 39.3984C165.312 39.8047 165.641 40.2891 165.875 40.8516C166.125 41.4141 166.25 42.0156 166.25 42.6562V52.875ZM149.727 42.6562V48.2578H161.633V42.6562H149.727ZM179.055 42.6562V63H174.461V38.0391H179.055V42.4453C179.086 41.8359 179.227 41.2656 179.477 40.7344C179.727 40.1875 180.055 39.7188 180.461 39.3281C180.883 38.9219 181.367 38.6094 181.914 38.3906C182.461 38.1562 183.047 38.0391 183.672 38.0391H188.57C189.211 38.0391 189.805 38.1641 190.352 38.4141C190.914 38.6484 191.406 38.9766 191.828 39.3984C192.25 39.8047 192.578 40.2891 192.812 40.8516C193.062 41.4141 193.188 42.0156 193.188 42.6562V46.875H188.57V42.6562H179.055ZM197.016 29.3906H223.898V34.1953H212.859V63H208.055V34.1953H197.016V29.3906ZM247.906 52.875H231.383V58.3828H247.906V63H231.383C230.758 63 230.164 62.8828 229.602 62.6484C229.039 62.3984 228.547 62.0703 228.125 61.6641C227.719 61.2422 227.391 60.75 227.141 60.1875C226.906 59.625 226.789 59.0234 226.789 58.3828V42.6562C226.789 42.0156 226.906 41.4141 227.141 40.8516C227.391 40.2891 227.719 39.8047 228.125 39.3984C228.547 38.9766 229.039 38.6484 229.602 38.4141C230.164 38.1641 230.758 38.0391 231.383 38.0391H243.289C243.93 38.0391 244.531 38.1641 245.094 38.4141C245.656 38.6484 246.141 38.9766 246.547 39.3984C246.969 39.8047 247.297 40.2891 247.531 40.8516C247.781 41.4141 247.906 42.0156 247.906 42.6562V52.875ZM231.383 42.6562V48.2578H243.289V42.6562H231.383ZM260.711 42.6562V58.3828H272.617V54.1641H277.234V58.3828C277.234 59.0234 277.109 59.625 276.859 60.1875C276.625 60.75 276.297 61.2422 275.875 61.6641C275.469 62.0703 274.984 62.3984 274.422 62.6484C273.859 62.8828 273.258 63 272.617 63H260.711C260.086 63 259.492 62.8828 258.93 62.6484C258.367 62.3984 257.875 62.0703 257.453 61.6641C257.047 61.2422 256.719 60.75 256.469 60.1875C256.234 59.625 256.117 59.0234 256.117 58.3828V42.6562C256.117 42.0156 256.234 41.4141 256.469 40.8516C256.719 40.2891 257.047 39.8047 257.453 39.3984C257.875 38.9766 258.367 38.6484 258.93 38.4141C259.492 38.1641 260.086 38.0391 260.711 38.0391H272.617C273.258 38.0391 273.859 38.1641 274.422 38.4141C274.984 38.6484 275.469 38.9766 275.875 39.3984C276.297 39.8047 276.625 40.2891 276.859 40.8516C277.109 41.4141 277.234 42.0156 277.234 42.6562V46.875H272.617V42.6562H260.711ZM307.523 63H302.906V42.6562H290.039V63H285.445V28.4297H290.039V42.4453C290.07 41.8359 290.211 41.2656 290.461 40.7344C290.711 40.1875 291.039 39.7188 291.445 39.3281C291.867 38.9219 292.352 38.6094 292.898 38.3906C293.445 38.1562 294.031 38.0391 294.656 38.0391H302.906C303.547 38.0391 304.148 38.1641 304.711 38.4141C305.273 38.6484 305.758 38.9766 306.164 39.3984C306.586 39.8047 306.914 40.2891 307.148 40.8516C307.398 41.4141 307.523 42.0156 307.523 42.6562V63ZM320.984 29.3906V58.1953H338.258V63H316.18V29.3906H320.984ZM344.055 52.1016C344.055 51.4609 344.172 50.8672 344.406 50.3203C344.656 49.7578 344.984 49.2656 345.391 48.8438C345.812 48.4219 346.305 48.0938 346.867 47.8594C347.43 47.6094 348.023 47.4844 348.648 47.4844H360.555V42.6562H345.484V38.0391H360.555C361.195 38.0391 361.797 38.1641 362.359 38.4141C362.922 38.6484 363.406 38.9766 363.812 39.3984C364.234 39.8047 364.562 40.2891 364.797 40.8516C365.047 41.4141 365.172 42.0156 365.172 42.6562V63H360.555V58.7812C360.508 59.3594 360.352 59.9062 360.086 60.4219C359.82 60.9375 359.477 61.3906 359.055 61.7812C358.648 62.1562 358.18 62.4531 357.648 62.6719C357.117 62.8906 356.555 63 355.961 63H348.648C348.023 63 347.43 62.8828 346.867 62.6484C346.305 62.3984 345.812 62.0703 345.391 61.6641C344.984 61.2422 344.656 60.75 344.406 60.1875C344.172 59.625 344.055 59.0234 344.055 58.3828V52.1016ZM348.648 58.3828H360.555V52.1016H348.648V58.3828ZM395.461 58.3828C395.461 59.0234 395.336 59.625 395.086 60.1875C394.852 60.75 394.523 61.2422 394.102 61.6641C393.695 62.0703 393.211 62.3984 392.648 62.6484C392.086 62.8828 391.484 63 390.844 63H377.977C377.352 63 376.758 62.8828 376.195 62.6484C375.633 62.3984 375.141 62.0703 374.719 61.6641C374.312 61.2422 373.984 60.75 373.734 60.1875C373.5 59.625 373.383 59.0234 373.383 58.3828V28.4297H377.977V42.4453C378.008 41.8359 378.148 41.2656 378.398 40.7344C378.648 40.1875 378.977 39.7188 379.383 39.3281C379.805 38.9219 380.289 38.6094 380.836 38.3906C381.383 38.1562 381.969 38.0391 382.594 38.0391H390.844C391.484 38.0391 392.086 38.1641 392.648 38.4141C393.211 38.6484 393.695 38.9766 394.102 39.3984C394.523 39.8047 394.852 40.2891 395.086 40.8516C395.336 41.4141 395.461 42.0156 395.461 42.6562V58.3828ZM377.977 42.6562V58.3828H390.844V42.6562H377.977Z"/>
</mask>
<path d="M66.0078 34.1953C66.0078 33.5391 66.1328 32.9219 66.3828 32.3438C66.6328 31.75 66.9766 31.2422 67.4141 30.8203C67.8516 30.3828 68.3594 30.0391 68.9375 29.7891C69.5312 29.5234 70.1562 29.3906 70.8125 29.3906H89.0469C89.7031 29.3906 90.3203 29.5234 90.8984 29.7891C91.4922 30.0391 92.0078 30.3828 92.4453 30.8203C92.8828 31.2422 93.2266 31.75 93.4766 32.3438C93.7266 32.9219 93.8516 33.5391 93.8516 34.1953V38.5312H89.0469V34.1953H70.8125V58.1953H89.0469V53.8828H93.8516V58.1953C93.8516 58.8516 93.7266 59.4766 93.4766 60.0703C93.2266 60.6484 92.8828 61.1562 92.4453 61.5938C92.0078 62.0312 91.4922 62.375 90.8984 62.625C90.3203 62.875 89.7031 63 89.0469 63H70.8125C70.1562 63 69.5312 62.875 68.9375 62.625C68.3594 62.375 67.8516 62.0312 67.4141 61.5938C66.9766 61.1562 66.6328 60.6484 66.3828 60.0703C66.1328 59.4766 66.0078 58.8516 66.0078 58.1953V34.1953ZM106.422 38.0391V63H101.805V38.0391H106.422ZM101.57 28.4297H106.656V33.2344H101.57V28.4297ZM114.867 42.6562C114.867 42.0156 114.984 41.4141 115.219 40.8516C115.469 40.2891 115.797 39.8047 116.203 39.3984C116.625 38.9766 117.117 38.6484 117.68 38.4141C118.242 38.1641 118.836 38.0391 119.461 38.0391H132.328V28.4297H136.945V63H132.328V58.7812C132.281 59.3594 132.125 59.9062 131.859 60.4219C131.594 60.9375 131.25 61.3906 130.828 61.7812C130.422 62.1562 129.953 62.4531 129.422 62.6719C128.891 62.8906 128.328 63 127.734 63H119.461C118.836 63 118.242 62.8828 117.68 62.6484C117.117 62.3984 116.625 62.0703 116.203 61.6641C115.797 61.2422 115.469 60.75 115.219 60.1875C114.984 59.625 114.867 59.0234 114.867 58.3828V42.6562ZM119.461 58.3828H132.328V42.6562H119.461V58.3828ZM166.25 52.875H149.727V58.3828H166.25V63H149.727C149.102 63 148.508 62.8828 147.945 62.6484C147.383 62.3984 146.891 62.0703 146.469 61.6641C146.062 61.2422 145.734 60.75 145.484 60.1875C145.25 59.625 145.133 59.0234 145.133 58.3828V42.6562C145.133 42.0156 145.25 41.4141 145.484 40.8516C145.734 40.2891 146.062 39.8047 146.469 39.3984C146.891 38.9766 147.383 38.6484 147.945 38.4141C148.508 38.1641 149.102 38.0391 149.727 38.0391H161.633C162.273 38.0391 162.875 38.1641 163.438 38.4141C164 38.6484 164.484 38.9766 164.891 39.3984C165.312 39.8047 165.641 40.2891 165.875 40.8516C166.125 41.4141 166.25 42.0156 166.25 42.6562V52.875ZM149.727 42.6562V48.2578H161.633V42.6562H149.727ZM179.055 42.6562V63H174.461V38.0391H179.055V42.4453C179.086 41.8359 179.227 41.2656 179.477 40.7344C179.727 40.1875 180.055 39.7188 180.461 39.3281C180.883 38.9219 181.367 38.6094 181.914 38.3906C182.461 38.1562 183.047 38.0391 183.672 38.0391H188.57C189.211 38.0391 189.805 38.1641 190.352 38.4141C190.914 38.6484 191.406 38.9766 191.828 39.3984C192.25 39.8047 192.578 40.2891 192.812 40.8516C193.062 41.4141 193.188 42.0156 193.188 42.6562V46.875H188.57V42.6562H179.055ZM197.016 29.3906H223.898V34.1953H212.859V63H208.055V34.1953H197.016V29.3906ZM247.906 52.875H231.383V58.3828H247.906V63H231.383C230.758 63 230.164 62.8828 229.602 62.6484C229.039 62.3984 228.547 62.0703 228.125 61.6641C227.719 61.2422 227.391 60.75 227.141 60.1875C226.906 59.625 226.789 59.0234 226.789 58.3828V42.6562C226.789 42.0156 226.906 41.4141 227.141 40.8516C227.391 40.2891 227.719 39.8047 228.125 39.3984C228.547 38.9766 229.039 38.6484 229.602 38.4141C230.164 38.1641 230.758 38.0391 231.383 38.0391H243.289C243.93 38.0391 244.531 38.1641 245.094 38.4141C245.656 38.6484 246.141 38.9766 246.547 39.3984C246.969 39.8047 247.297 40.2891 247.531 40.8516C247.781 41.4141 247.906 42.0156 247.906 42.6562V52.875ZM231.383 42.6562V48.2578H243.289V42.6562H231.383ZM260.711 42.6562V58.3828H272.617V54.1641H277.234V58.3828C277.234 59.0234 277.109 59.625 276.859 60.1875C276.625 60.75 276.297 61.2422 275.875 61.6641C275.469 62.0703 274.984 62.3984 274.422 62.6484C273.859 62.8828 273.258 63 272.617 63H260.711C260.086 63 259.492 62.8828 258.93 62.6484C258.367 62.3984 257.875 62.0703 257.453 61.6641C257.047 61.2422 256.719 60.75 256.469 60.1875C256.234 59.625 256.117 59.0234 256.117 58.3828V42.6562C256.117 42.0156 256.234 41.4141 256.469 40.8516C256.719 40.2891 257.047 39.8047 257.453 39.3984C257.875 38.9766 258.367 38.6484 258.93 38.4141C259.492 38.1641 260.086 38.0391 260.711 38.0391H272.617C273.258 38.0391 273.859 38.1641 274.422 38.4141C274.984 38.6484 275.469 38.9766 275.875 39.3984C276.297 39.8047 276.625 40.2891 276.859 40.8516C277.109 41.4141 277.234 42.0156 277.234 42.6562V46.875H272.617V42.6562H260.711ZM307.523 63H302.906V42.6562H290.039V63H285.445V28.4297H290.039V42.4453C290.07 41.8359 290.211 41.2656 290.461 40.7344C290.711 40.1875 291.039 39.7188 291.445 39.3281C291.867 38.9219 292.352 38.6094 292.898 38.3906C293.445 38.1562 294.031 38.0391 294.656 38.0391H302.906C303.547 38.0391 304.148 38.1641 304.711 38.4141C305.273 38.6484 305.758 38.9766 306.164 39.3984C306.586 39.8047 306.914 40.2891 307.148 40.8516C307.398 41.4141 307.523 42.0156 307.523 42.6562V63ZM320.984 29.3906V58.1953H338.258V63H316.18V29.3906H320.984ZM344.055 52.1016C344.055 51.4609 344.172 50.8672 344.406 50.3203C344.656 49.7578 344.984 49.2656 345.391 48.8438C345.812 48.4219 346.305 48.0938 346.867 47.8594C347.43 47.6094 348.023 47.4844 348.648 47.4844H360.555V42.6562H345.484V38.0391H360.555C361.195 38.0391 361.797 38.1641 362.359 38.4141C362.922 38.6484 363.406 38.9766 363.812 39.3984C364.234 39.8047 364.562 40.2891 364.797 40.8516C365.047 41.4141 365.172 42.0156 365.172 42.6562V63H360.555V58.7812C360.508 59.3594 360.352 59.9062 360.086 60.4219C359.82 60.9375 359.477 61.3906 359.055 61.7812C358.648 62.1562 358.18 62.4531 357.648 62.6719C357.117 62.8906 356.555 63 355.961 63H348.648C348.023 63 347.43 62.8828 346.867 62.6484C346.305 62.3984 345.812 62.0703 345.391 61.6641C344.984 61.2422 344.656 60.75 344.406 60.1875C344.172 59.625 344.055 59.0234 344.055 58.3828V52.1016ZM348.648 58.3828H360.555V52.1016H348.648V58.3828ZM395.461 58.3828C395.461 59.0234 395.336 59.625 395.086 60.1875C394.852 60.75 394.523 61.2422 394.102 61.6641C393.695 62.0703 393.211 62.3984 392.648 62.6484C392.086 62.8828 391.484 63 390.844 63H377.977C377.352 63 376.758 62.8828 376.195 62.6484C375.633 62.3984 375.141 62.0703 374.719 61.6641C374.312 61.2422 373.984 60.75 373.734 60.1875C373.5 59.625 373.383 59.0234 373.383 58.3828V28.4297H377.977V42.4453C378.008 41.8359 378.148 41.2656 378.398 40.7344C378.648 40.1875 378.977 39.7188 379.383 39.3281C379.805 38.9219 380.289 38.6094 380.836 38.3906C381.383 38.1562 381.969 38.0391 382.594 38.0391H390.844C391.484 38.0391 392.086 38.1641 392.648 38.4141C393.211 38.6484 393.695 38.9766 394.102 39.3984C394.523 39.8047 394.852 40.2891 395.086 40.8516C395.336 41.4141 395.461 42.0156 395.461 42.6562V58.3828ZM377.977 42.6562V58.3828H390.844V42.6562H377.977Z" fill="url(#paint0_linear_147_36)"/>
<path d="M66.3828 32.3438L70.9721 34.3283L70.9817 34.3062L70.991 34.284L66.3828 32.3438ZM67.4141 30.8203L70.8847 34.4195L70.9175 34.388L70.9496 34.3558L67.4141 30.8203ZM68.9375 29.7891L70.9221 34.3783L70.9508 34.3659L70.9793 34.3532L68.9375 29.7891ZM90.8984 29.7891L88.8109 34.3324L88.884 34.366L88.9582 34.3972L90.8984 29.7891ZM92.4453 30.8203L88.9098 34.3558L88.9419 34.388L88.9746 34.4195L92.4453 30.8203ZM93.4766 32.3438L88.8684 34.284L88.8777 34.3062L88.8873 34.3283L93.4766 32.3438ZM93.8516 38.5312V43.5312H98.8516V38.5312H93.8516ZM89.0469 38.5312H84.0469V43.5312H89.0469V38.5312ZM89.0469 34.1953H94.0469V29.1953H89.0469V34.1953ZM70.8125 34.1953V29.1953H65.8125V34.1953H70.8125ZM70.8125 58.1953H65.8125V63.1953H70.8125V58.1953ZM89.0469 58.1953V63.1953H94.0469V58.1953H89.0469ZM89.0469 53.8828V48.8828H84.0469V53.8828H89.0469ZM93.8516 53.8828H98.8516V48.8828H93.8516V53.8828ZM93.4766 60.0703L98.0658 62.0549L98.0754 62.0328L98.0847 62.0106L93.4766 60.0703ZM90.8984 62.625L88.9582 58.0168L88.936 58.0262L88.9139 58.0357L90.8984 62.625ZM68.9375 62.625L66.9529 67.2143L66.975 67.2238L66.9972 67.2332L68.9375 62.625ZM66.3828 60.0703L61.7746 62.0106L61.784 62.0328L61.7935 62.0549L66.3828 60.0703ZM66.0078 34.1953H71.0078C71.0078 34.1865 71.0085 34.2012 71.0021 34.2327C70.9956 34.2648 70.985 34.2985 70.9721 34.3283L66.3828 32.3438L61.7935 30.3592C61.2612 31.5901 61.0078 32.8856 61.0078 34.1953H66.0078ZM66.3828 32.3438L70.991 34.284C70.9952 34.2741 70.9896 34.2895 70.9687 34.3204C70.9473 34.3519 70.9186 34.3869 70.8847 34.4195L67.4141 30.8203L63.9434 27.2211C62.9894 28.141 62.2715 29.2234 61.7746 30.4035L66.3828 32.3438ZM67.4141 30.8203L70.9496 34.3558C70.9483 34.3571 70.9453 34.36 70.9406 34.3639C70.9359 34.3678 70.9309 34.3715 70.9259 34.3749C70.9209 34.3783 70.9173 34.3804 70.9158 34.3812C70.9143 34.382 70.9161 34.3809 70.9221 34.3783L68.9375 29.7891L66.9529 25.1998C65.8067 25.6955 64.7701 26.3932 63.8785 27.2848L67.4141 30.8203ZM68.9375 29.7891L70.9793 34.3532C70.9603 34.3617 70.9293 34.3729 70.8909 34.381C70.8526 34.3892 70.8242 34.3906 70.8125 34.3906V29.3906V24.3906C69.459 24.3906 68.1376 24.6693 66.8957 25.225L68.9375 29.7891ZM70.8125 29.3906V34.3906H89.0469V29.3906V24.3906H70.8125V29.3906ZM89.0469 29.3906V34.3906C89.0354 34.3906 89.0005 34.3892 88.9501 34.3783C88.8991 34.3674 88.8509 34.3508 88.8109 34.3324L90.8984 29.7891L92.9859 25.2457C91.7322 24.6696 90.4004 24.3906 89.0469 24.3906V29.3906ZM90.8984 29.7891L88.9582 34.3972C88.9753 34.4044 88.9723 34.4048 88.957 34.3946C88.9413 34.3842 88.9242 34.3703 88.9098 34.3558L92.4453 30.8203L95.9808 27.2848C95.0672 26.3711 94.0036 25.6713 92.8387 25.1809L90.8984 29.7891ZM92.4453 30.8203L88.9746 34.4195C88.9408 34.3869 88.9121 34.3519 88.8907 34.3204C88.8698 34.2895 88.8642 34.2741 88.8684 34.284L93.4766 32.3438L98.0847 30.4035C97.5879 29.2234 96.87 28.141 95.916 27.2211L92.4453 30.8203ZM93.4766 32.3438L88.8873 34.3283C88.8744 34.2985 88.8638 34.2648 88.8573 34.2327C88.8509 34.2012 88.8516 34.1865 88.8516 34.1953H93.8516H98.8516C98.8516 32.8856 98.5981 31.5901 98.0658 30.3592L93.4766 32.3438ZM93.8516 34.1953H88.8516V38.5312H93.8516H98.8516V34.1953H93.8516ZM93.8516 38.5312V33.5312H89.0469V38.5312V43.5312H93.8516V38.5312ZM89.0469 38.5312H94.0469V34.1953H89.0469H84.0469V38.5312H89.0469ZM89.0469 34.1953V29.1953H70.8125V34.1953V39.1953H89.0469V34.1953ZM70.8125 34.1953H65.8125V58.1953H70.8125H75.8125V34.1953H70.8125ZM70.8125 58.1953V63.1953H89.0469V58.1953V53.1953H70.8125V58.1953ZM89.0469 58.1953H94.0469V53.8828H89.0469H84.0469V58.1953H89.0469ZM89.0469 53.8828V58.8828H93.8516V53.8828V48.8828H89.0469V53.8828ZM93.8516 53.8828H88.8516V58.1953H93.8516H98.8516V53.8828H93.8516ZM93.8516 58.1953H88.8516C88.8516 58.2039 88.851 58.1955 88.8549 58.1757C88.8589 58.1557 88.8646 58.139 88.8684 58.13L93.4766 60.0703L98.0847 62.0106C98.5982 60.791 98.8516 59.5052 98.8516 58.1953H93.8516ZM93.4766 60.0703L88.8873 58.0858C88.8847 58.0917 88.8836 58.0935 88.8844 58.092C88.8853 58.0905 88.8873 58.0869 88.8907 58.0819C88.8941 58.0769 88.8979 58.0719 88.9017 58.0672C88.9056 58.0625 88.9085 58.0595 88.9098 58.0582L92.4453 61.5938L95.9808 65.1293C96.8724 64.2377 97.5702 63.2011 98.0658 62.0549L93.4766 60.0703ZM92.4453 61.5938L88.9098 58.0582C88.9242 58.0438 88.9413 58.0299 88.957 58.0194C88.9723 58.0092 88.9753 58.0096 88.9582 58.0168L90.8984 62.625L92.8387 67.2332C94.0036 66.7427 95.0672 66.043 95.9808 65.1293L92.4453 61.5938ZM90.8984 62.625L88.9139 58.0357C88.9437 58.0228 88.9774 58.0122 89.0094 58.0057C89.041 57.9994 89.0557 58 89.0469 58V63V68C90.3565 68 91.6521 67.7466 92.883 67.2143L90.8984 62.625ZM89.0469 63V58H70.8125V63V68H89.0469V63ZM70.8125 63V58C70.8039 58 70.8124 57.9994 70.8321 58.0033C70.8522 58.0074 70.8688 58.013 70.8778 58.0168L68.9375 62.625L66.9972 67.2332C68.2168 67.7467 69.5026 68 70.8125 68V63ZM68.9375 62.625L70.9221 58.0357C70.9161 58.0331 70.9143 58.032 70.9158 58.0329C70.9173 58.0337 70.9209 58.0358 70.9259 58.0391C70.9309 58.0425 70.9359 58.0463 70.9406 58.0502C70.9453 58.054 70.9483 58.0569 70.9496 58.0582L67.4141 61.5938L63.8785 65.1293C64.7701 66.0208 65.8067 66.7186 66.9529 67.2143L68.9375 62.625ZM67.4141 61.5938L70.9496 58.0582C70.9509 58.0595 70.9538 58.0625 70.9576 58.0672C70.9615 58.0719 70.9653 58.0769 70.9687 58.0819C70.972 58.0869 70.9741 58.0905 70.975 58.092C70.9758 58.0935 70.9747 58.0917 70.9721 58.0858L66.3828 60.0703L61.7935 62.0549C62.2892 63.2011 62.987 64.2377 63.8785 65.1293L67.4141 61.5938ZM66.3828 60.0703L70.991 58.13C70.9948 58.139 71.0005 58.1557 71.0045 58.1757C71.0084 58.1955 71.0078 58.2039 71.0078 58.1953H66.0078H61.0078C61.0078 59.5052 61.2611 60.791 61.7746 62.0106L66.3828 60.0703ZM66.0078 58.1953H71.0078V34.1953H66.0078H61.0078V58.1953H66.0078ZM106.422 38.0391H111.422V33.0391H106.422V38.0391ZM106.422 63V68H111.422V63H106.422ZM101.805 63H96.8047V68H101.805V63ZM101.805 38.0391V33.0391H96.8047V38.0391H101.805ZM101.57 28.4297V23.4297H96.5703V28.4297H101.57ZM106.656 28.4297H111.656V23.4297H106.656V28.4297ZM106.656 33.2344V38.2344H111.656V33.2344H106.656ZM101.57 33.2344H96.5703V38.2344H101.57V33.2344ZM106.422 38.0391H101.422V63H106.422H111.422V38.0391H106.422ZM106.422 63V58H101.805V63V68H106.422V63ZM101.805 63H106.805V38.0391H101.805H96.8047V63H101.805ZM101.805 38.0391V43.0391H106.422V38.0391V33.0391H101.805V38.0391ZM101.57 28.4297V33.4297H106.656V28.4297V23.4297H101.57V28.4297ZM106.656 28.4297H101.656V33.2344H106.656H111.656V28.4297H106.656ZM106.656 33.2344V28.2344H101.57V33.2344V38.2344H106.656V33.2344ZM101.57 33.2344H106.57V28.4297H101.57H96.5703V33.2344H101.57ZM115.219 40.8516L110.65 38.8209L110.626 38.8744L110.603 38.9285L115.219 40.8516ZM117.68 38.4141L119.603 43.0294L119.657 43.0069L119.71 42.9831L117.68 38.4141ZM132.328 38.0391V43.0391H137.328V38.0391H132.328ZM132.328 28.4297V23.4297H127.328V28.4297H132.328ZM136.945 28.4297H141.945V23.4297H136.945V28.4297ZM136.945 63V68H141.945V63H136.945ZM132.328 63H127.328V68H132.328V63ZM132.328 58.7812H137.328L127.344 58.3772L132.328 58.7812ZM130.828 61.7812L134.22 65.4553L134.225 65.4501L130.828 61.7812ZM117.68 62.6484L115.649 67.2175L115.703 67.2413L115.757 67.2638L117.68 62.6484ZM116.203 61.6641L112.602 65.1323L112.667 65.2002L112.735 65.2657L116.203 61.6641ZM115.219 60.1875L110.603 62.1106L110.626 62.1647L110.65 62.2182L115.219 60.1875ZM119.461 58.3828H114.461V63.3828H119.461V58.3828ZM132.328 58.3828V63.3828H137.328V58.3828H132.328ZM132.328 42.6562H137.328V37.6562H132.328V42.6562ZM119.461 42.6562V37.6562H114.461V42.6562H119.461ZM114.867 42.6562H119.867C119.867 42.6424 119.868 42.6526 119.863 42.6807C119.857 42.7094 119.848 42.7425 119.834 42.7746L115.219 40.8516L110.603 38.9285C110.102 40.1313 109.867 41.3899 109.867 42.6562H114.867ZM115.219 40.8516L119.788 42.8823C119.799 42.8571 119.802 42.8558 119.792 42.8706C119.782 42.886 119.764 42.9089 119.739 42.934L116.203 39.3984L112.668 35.8629C111.797 36.7333 111.131 37.7379 110.65 38.8209L115.219 40.8516ZM116.203 39.3984L119.739 42.934C119.719 42.9538 119.692 42.976 119.662 42.9962C119.632 43.0162 119.61 43.0264 119.603 43.0294L117.68 38.4141L115.757 33.7987C114.604 34.2787 113.561 34.9692 112.668 35.8629L116.203 39.3984ZM117.68 38.4141L119.71 42.9831C119.675 42.9988 119.629 43.0146 119.577 43.0256C119.525 43.0365 119.484 43.0391 119.461 43.0391V38.0391V33.0391C118.147 33.0391 116.861 33.3064 115.649 33.845L117.68 38.4141ZM119.461 38.0391V43.0391H132.328V38.0391V33.0391H119.461V38.0391ZM132.328 38.0391H137.328V28.4297H132.328H127.328V38.0391H132.328ZM132.328 28.4297V33.4297H136.945V28.4297V23.4297H132.328V28.4297ZM136.945 28.4297H131.945V63H136.945H141.945V28.4297H136.945ZM136.945 63V58H132.328V63V68H136.945V63ZM132.328 63H137.328V58.7812H132.328H127.328V63H132.328ZM132.328 58.7812L127.344 58.3772C127.347 58.3446 127.354 58.3008 127.368 58.2514C127.382 58.202 127.4 58.1612 127.415 58.1321L131.859 60.4219L136.304 62.7117C136.872 61.6092 137.212 60.4214 137.312 59.1853L132.328 58.7812ZM131.859 60.4219L127.415 58.1321C127.413 58.1356 127.412 58.1362 127.413 58.1346C127.414 58.133 127.416 58.1301 127.419 58.1265C127.422 58.1229 127.424 58.1195 127.427 58.1166C127.43 58.1138 127.431 58.1124 127.431 58.1124L130.828 61.7812L134.225 65.4501C135.078 64.6607 135.775 63.7398 136.304 62.7117L131.859 60.4219ZM130.828 61.7812L127.437 58.1072C127.456 58.0894 127.477 58.0734 127.497 58.0611C127.516 58.0489 127.525 58.0457 127.518 58.0485L129.422 62.6719L131.326 67.2953C132.383 66.8597 133.361 66.2481 134.22 65.4553L130.828 61.7812ZM129.422 62.6719L127.518 58.0485C127.558 58.0321 127.603 58.0186 127.647 58.0099C127.692 58.0013 127.722 58 127.734 58V63V68C128.959 68 130.17 67.771 131.326 67.2953L129.422 62.6719ZM127.734 63V58H119.461V63V68H127.734V63ZM119.461 63V58C119.461 58 119.461 58 119.461 58C119.461 58 119.461 58 119.461 58C119.461 58 119.461 58 119.461 58C119.461 58 119.461 58 119.461 58C119.461 58 119.461 58 119.461 58C119.461 58 119.462 58 119.462 58C119.463 58 119.464 58.0001 119.465 58.0001C119.468 58.0003 119.472 58.0005 119.477 58.001C119.487 58.0019 119.5 58.0037 119.515 58.0067C119.548 58.0132 119.578 58.0229 119.603 58.0331L117.68 62.6484L115.757 67.2638C116.944 67.7587 118.193 68 119.461 68V63ZM117.68 62.6484L119.71 58.0794C119.677 58.0647 119.663 58.0554 119.662 58.0546C119.661 58.0539 119.662 58.0545 119.664 58.0563C119.667 58.058 119.669 58.0602 119.671 58.0625L116.203 61.6641L112.735 65.2657C113.597 66.0959 114.582 66.7433 115.649 67.2175L117.68 62.6484ZM116.203 61.6641L119.805 58.1959C119.807 58.1982 119.809 58.2007 119.811 58.2029C119.813 58.2051 119.813 58.206 119.813 58.205C119.812 58.2038 119.802 58.1898 119.788 58.1568L115.219 60.1875L110.65 62.2182C111.124 63.2851 111.771 64.2701 112.602 65.1323L116.203 61.6641ZM115.219 60.1875L119.834 58.2644C119.848 58.2966 119.857 58.3297 119.863 58.3584C119.868 58.3865 119.867 58.3967 119.867 58.3828H114.867H109.867C109.867 59.6492 110.102 60.9077 110.603 62.1106L115.219 60.1875ZM114.867 58.3828H119.867V42.6562H114.867H109.867V58.3828H114.867ZM119.461 58.3828V63.3828H132.328V58.3828V53.3828H119.461V58.3828ZM132.328 58.3828H137.328V42.6562H132.328H127.328V58.3828H132.328ZM132.328 42.6562V37.6562H119.461V42.6562V47.6562H132.328V42.6562ZM119.461 42.6562H114.461V58.3828H119.461H124.461V42.6562H119.461ZM166.25 52.875V57.875H171.25V52.875H166.25ZM149.727 52.875V47.875H144.727V52.875H149.727ZM149.727 58.3828H144.727V63.3828H149.727V58.3828ZM166.25 58.3828H171.25V53.3828H166.25V58.3828ZM166.25 63V68H171.25V63H166.25ZM147.945 62.6484L145.915 67.2175L145.968 67.2413L146.022 67.2638L147.945 62.6484ZM146.469 61.6641L142.867 65.1323L142.933 65.2002L143.001 65.2657L146.469 61.6641ZM145.484 60.1875L140.869 62.1106L140.892 62.1647L140.915 62.2182L145.484 60.1875ZM145.484 40.8516L140.915 38.8209L140.892 38.8744L140.869 38.9285L145.484 40.8516ZM147.945 38.4141L149.868 43.0294L149.922 43.0069L149.976 42.9831L147.945 38.4141ZM163.438 38.4141L161.407 42.9831L161.46 43.0069L161.514 43.0294L163.438 38.4141ZM164.891 39.3984L161.289 42.8666L161.354 42.9346L161.422 43L164.891 39.3984ZM165.875 40.8516L161.26 42.7746L161.282 42.8287L161.306 42.8823L165.875 40.8516ZM149.727 42.6562V37.6562H144.727V42.6562H149.727ZM149.727 48.2578H144.727V53.2578H149.727V48.2578ZM161.633 48.2578V53.2578H166.633V48.2578H161.633ZM161.633 42.6562H166.633V37.6562H161.633V42.6562ZM166.25 52.875V47.875H149.727V52.875V57.875H166.25V52.875ZM149.727 52.875H144.727V58.3828H149.727H154.727V52.875H149.727ZM149.727 58.3828V63.3828H166.25V58.3828V53.3828H149.727V58.3828ZM166.25 58.3828H161.25V63H166.25H171.25V58.3828H166.25ZM166.25 63V58H149.727V63V68H166.25V63ZM149.727 63V58C149.726 58 149.727 58 149.727 58C149.726 58 149.727 58 149.727 58C149.727 58 149.727 58 149.727 58C149.727 58 149.727 58 149.727 58C149.727 58 149.727 58 149.727 58C149.727 58 149.727 58 149.728 58C149.728 58 149.729 58.0001 149.731 58.0001C149.733 58.0003 149.737 58.0005 149.742 58.001C149.752 58.0019 149.765 58.0037 149.781 58.0067C149.813 58.0132 149.844 58.0229 149.868 58.0331L147.945 62.6484L146.022 67.2638C147.21 67.7587 148.459 68 149.727 68V63ZM147.945 62.6484L149.976 58.0794C149.943 58.0647 149.929 58.0554 149.928 58.0546C149.927 58.0539 149.928 58.0545 149.93 58.0563C149.932 58.058 149.935 58.0602 149.937 58.0625L146.469 61.6641L143.001 65.2657C143.863 66.0959 144.848 66.7433 145.915 67.2175L147.945 62.6484ZM146.469 61.6641L150.07 58.1959C150.073 58.1982 150.075 58.2007 150.077 58.2029C150.078 58.2051 150.079 58.206 150.078 58.205C150.077 58.2038 150.068 58.1898 150.053 58.1568L145.484 60.1875L140.915 62.2182C141.39 63.2851 142.037 64.2701 142.867 65.1323L146.469 61.6641ZM145.484 60.1875L150.1 58.2644C150.113 58.2966 150.123 58.3297 150.128 58.3584C150.134 58.3865 150.133 58.3967 150.133 58.3828H145.133H140.133C140.133 59.6492 140.368 60.9077 140.869 62.1106L145.484 60.1875ZM145.133 58.3828H150.133V42.6562H145.133H140.133V58.3828H145.133ZM145.133 42.6562H150.133C150.133 42.6424 150.134 42.6526 150.128 42.6807C150.123 42.7094 150.113 42.7425 150.1 42.7746L145.484 40.8516L140.869 38.9285C140.368 40.1313 140.133 41.3899 140.133 42.6562H145.133ZM145.484 40.8516L150.053 42.8823C150.065 42.8571 150.068 42.8558 150.058 42.8706C150.047 42.886 150.029 42.9089 150.004 42.934L146.469 39.3984L142.933 35.8629C142.063 36.7333 141.397 37.7379 140.915 38.8209L145.484 40.8516ZM146.469 39.3984L150.004 42.934C149.984 42.9538 149.958 42.976 149.928 42.9962C149.898 43.0162 149.876 43.0264 149.868 43.0294L147.945 38.4141L146.022 33.7987C144.87 34.2787 143.827 34.9692 142.933 35.8629L146.469 39.3984ZM147.945 38.4141L149.976 42.9831C149.941 42.9988 149.895 43.0146 149.843 43.0256C149.791 43.0365 149.75 43.0391 149.727 43.0391V38.0391V33.0391C148.413 33.0391 147.126 33.3064 145.915 33.845L147.945 38.4141ZM149.727 38.0391V43.0391H161.633V38.0391V33.0391H149.727V38.0391ZM161.633 38.0391V43.0391C161.626 43.0391 161.595 43.0382 161.547 43.0282C161.499 43.0182 161.45 43.0024 161.407 42.9831L163.438 38.4141L165.468 33.845C164.24 33.2993 162.944 33.0391 161.633 33.0391V38.0391ZM163.438 38.4141L161.514 43.0294C161.5 43.0233 161.465 43.0068 161.418 42.9755C161.372 42.944 161.327 42.9064 161.289 42.8666L164.891 39.3984L168.492 35.9302C167.592 34.995 166.529 34.2856 165.361 33.7987L163.438 38.4141ZM164.891 39.3984L161.422 43C161.383 42.9618 161.345 42.9172 161.314 42.8706C161.282 42.8245 161.266 42.7895 161.26 42.7746L165.875 40.8516L170.49 38.9285C170.003 37.76 169.294 36.6974 168.359 35.7968L164.891 39.3984ZM165.875 40.8516L161.306 42.8823C161.287 42.8389 161.271 42.7902 161.261 42.7418C161.251 42.6941 161.25 42.6632 161.25 42.6562H166.25H171.25C171.25 41.3452 170.99 40.0488 170.444 38.8209L165.875 40.8516ZM166.25 42.6562H161.25V52.875H166.25H171.25V42.6562H166.25ZM149.727 42.6562H144.727V48.2578H149.727H154.727V42.6562H149.727ZM149.727 48.2578V53.2578H161.633V48.2578V43.2578H149.727V48.2578ZM161.633 48.2578H166.633V42.6562H161.633H156.633V48.2578H161.633ZM161.633 42.6562V37.6562H149.727V42.6562V47.6562H161.633V42.6562ZM179.055 42.6562V37.6562H174.055V42.6562H179.055ZM179.055 63V68H184.055V63H179.055ZM174.461 63H169.461V68H174.461V63ZM174.461 38.0391V33.0391H169.461V38.0391H174.461ZM179.055 38.0391H184.055V33.0391H179.055V38.0391ZM179.055 42.4453H174.055L184.048 42.7014L179.055 42.4453ZM179.477 40.7344L184.001 42.8634L184.012 42.8383L184.024 42.8132L179.477 40.7344ZM180.461 39.3281L183.926 42.9323L183.929 42.9297L180.461 39.3281ZM181.914 38.3906L183.771 43.033L183.828 43.0104L183.884 42.9864L181.914 38.3906ZM190.352 38.4141L188.273 42.9614L188.35 42.9968L188.428 43.0294L190.352 38.4141ZM191.828 39.3984L188.293 42.934L188.326 42.9673L188.36 43L191.828 39.3984ZM192.812 40.8516L188.197 42.7746L188.22 42.8287L188.243 42.8823L192.812 40.8516ZM193.188 46.875V51.875H198.188V46.875H193.188ZM188.57 46.875H183.57V51.875H188.57V46.875ZM188.57 42.6562H193.57V37.6562H188.57V42.6562ZM179.055 42.6562H174.055V63H179.055H184.055V42.6562H179.055ZM179.055 63V58H174.461V63V68H179.055V63ZM174.461 63H179.461V38.0391H174.461H169.461V63H174.461ZM174.461 38.0391V43.0391H179.055V38.0391V33.0391H174.461V38.0391ZM179.055 38.0391H174.055V42.4453H179.055H184.055V38.0391H179.055ZM179.055 42.4453L184.048 42.7014C184.048 42.7009 184.048 42.7062 184.046 42.7165C184.045 42.7268 184.042 42.7407 184.038 42.7576C184.029 42.7931 184.016 42.8299 184.001 42.8634L179.477 40.7344L174.952 38.6054C174.415 39.7476 174.124 40.9569 174.061 42.1892L179.055 42.4453ZM179.477 40.7344L184.024 42.8132C184.029 42.8018 184.025 42.8135 184.006 42.84C183.987 42.867 183.96 42.8996 183.926 42.9323L180.461 39.3281L176.995 35.724C176.106 36.579 175.423 37.5754 174.929 38.6556L179.477 40.7344ZM180.461 39.3281L183.929 42.9297C183.911 42.9469 183.885 42.969 183.851 42.9905C183.818 43.0121 183.789 43.0258 183.771 43.033L181.914 38.3906L180.057 33.7482C178.915 34.2053 177.882 34.87 176.993 35.7265L180.461 39.3281ZM181.914 38.3906L183.884 42.9864C183.838 43.0061 183.789 43.0209 183.744 43.0299C183.723 43.0341 183.705 43.0365 183.692 43.0378C183.686 43.0384 183.681 43.0387 183.677 43.0389C183.675 43.039 183.674 43.039 183.673 43.039C183.673 43.0391 183.672 43.0391 183.672 43.0391C183.672 43.0391 183.672 43.0391 183.672 43.0391C183.672 43.0391 183.672 43.0391 183.672 43.0391C183.672 43.0391 183.672 43.0391 183.672 43.0391C183.672 43.0391 183.672 43.0391 183.672 43.0391C183.672 43.0391 183.672 43.0391 183.672 43.0391V38.0391V33.0391C182.405 33.0391 181.145 33.2804 179.944 33.7949L181.914 38.3906ZM183.672 38.0391V43.0391H188.57V38.0391V33.0391H183.672V38.0391ZM188.57 38.0391V43.0391C188.564 43.0391 188.526 43.0382 188.466 43.0256C188.405 43.0127 188.338 42.9913 188.273 42.9614L190.352 38.4141L192.43 33.8667C191.189 33.2992 189.881 33.0391 188.57 33.0391V38.0391ZM190.352 38.4141L188.428 43.0294C188.421 43.0264 188.399 43.0162 188.369 42.9962C188.339 42.976 188.312 42.9538 188.293 42.934L191.828 39.3984L195.364 35.8629C194.47 34.9692 193.427 34.2787 192.275 33.7987L190.352 38.4141ZM191.828 39.3984L188.36 43C188.32 42.9618 188.283 42.9172 188.251 42.8706C188.22 42.8245 188.203 42.7895 188.197 42.7746L192.812 40.8516L197.428 38.9285C196.941 37.76 196.232 36.6974 195.296 35.7968L191.828 39.3984ZM192.812 40.8516L188.243 42.8823C188.224 42.8389 188.208 42.7902 188.198 42.7418C188.188 42.6941 188.188 42.6632 188.188 42.6562H193.188H198.188C198.188 41.3452 197.927 40.0488 197.382 38.8209L192.812 40.8516ZM193.188 42.6562H188.188V46.875H193.188H198.188V42.6562H193.188ZM193.188 46.875V41.875H188.57V46.875V51.875H193.188V46.875ZM188.57 46.875H193.57V42.6562H188.57H183.57V46.875H188.57ZM188.57 42.6562V37.6562H179.055V42.6562V47.6562H188.57V42.6562ZM197.016 29.3906V24.3906H192.016V29.3906H197.016ZM223.898 29.3906H228.898V24.3906H223.898V29.3906ZM223.898 34.1953V39.1953H228.898V34.1953H223.898ZM212.859 34.1953V29.1953H207.859V34.1953H212.859ZM212.859 63V68H217.859V63H212.859ZM208.055 63H203.055V68H208.055V63ZM208.055 34.1953H213.055V29.1953H208.055V34.1953ZM197.016 34.1953H192.016V39.1953H197.016V34.1953ZM197.016 29.3906V34.3906H223.898V29.3906V24.3906H197.016V29.3906ZM223.898 29.3906H218.898V34.1953H223.898H228.898V29.3906H223.898ZM223.898 34.1953V29.1953H212.859V34.1953V39.1953H223.898V34.1953ZM212.859 34.1953H207.859V63H212.859H217.859V34.1953H212.859ZM212.859 63V58H208.055V63V68H212.859V63ZM208.055 63H213.055V34.1953H208.055H203.055V63H208.055ZM208.055 34.1953V29.1953H197.016V34.1953V39.1953H208.055V34.1953ZM197.016 34.1953H202.016V29.3906H197.016H192.016V34.1953H197.016ZM247.906 52.875V57.875H252.906V52.875H247.906ZM231.383 52.875V47.875H226.383V52.875H231.383ZM231.383 58.3828H226.383V63.3828H231.383V58.3828ZM247.906 58.3828H252.906V53.3828H247.906V58.3828ZM247.906 63V68H252.906V63H247.906ZM229.602 62.6484L227.571 67.2175L227.624 67.2413L227.678 67.2638L229.602 62.6484ZM228.125 61.6641L224.523 65.1323L224.589 65.2002L224.657 65.2657L228.125 61.6641ZM227.141 60.1875L222.525 62.1106L222.548 62.1647L222.572 62.2182L227.141 60.1875ZM227.141 40.8516L222.572 38.8209L222.548 38.8744L222.525 38.9285L227.141 40.8516ZM229.602 38.4141L231.525 43.0294L231.579 43.0069L231.632 42.9831L229.602 38.4141ZM245.094 38.4141L243.063 42.9831L243.117 43.0069L243.171 43.0294L245.094 38.4141ZM246.547 39.3984L242.945 42.8666L243.011 42.9346L243.079 43L246.547 39.3984ZM247.531 40.8516L242.916 42.7746L242.938 42.8287L242.962 42.8823L247.531 40.8516ZM231.383 42.6562V37.6562H226.383V42.6562H231.383ZM231.383 48.2578H226.383V53.2578H231.383V48.2578ZM243.289 48.2578V53.2578H248.289V48.2578H243.289ZM243.289 42.6562H248.289V37.6562H243.289V42.6562ZM247.906 52.875V47.875H231.383V52.875V57.875H247.906V52.875ZM231.383 52.875H226.383V58.3828H231.383H236.383V52.875H231.383ZM231.383 58.3828V63.3828H247.906V58.3828V53.3828H231.383V58.3828ZM247.906 58.3828H242.906V63H247.906H252.906V58.3828H247.906ZM247.906 63V58H231.383V63V68H247.906V63ZM231.383 63V58C231.383 58 231.383 58 231.383 58C231.383 58 231.383 58 231.383 58C231.383 58 231.383 58 231.383 58C231.383 58 231.383 58 231.383 58C231.383 58 231.383 58 231.383 58C231.383 58 231.384 58 231.384 58C231.385 58 231.386 58.0001 231.387 58.0001C231.39 58.0003 231.394 58.0005 231.398 58.001C231.409 58.0019 231.422 58.0037 231.437 58.0067C231.469 58.0132 231.5 58.0229 231.525 58.0331L229.602 62.6484L227.678 67.2638C228.866 67.7587 230.115 68 231.383 68V63ZM229.602 62.6484L231.632 58.0794C231.599 58.0647 231.585 58.0554 231.584 58.0546C231.583 58.0539 231.584 58.0545 231.586 58.0563C231.588 58.058 231.591 58.0602 231.593 58.0625L228.125 61.6641L224.657 65.2657C225.519 66.0959 226.504 66.7433 227.571 67.2175L229.602 62.6484ZM228.125 61.6641L231.727 58.1959C231.729 58.1982 231.731 58.2007 231.733 58.2029C231.735 58.2051 231.735 58.206 231.734 58.205C231.734 58.2038 231.724 58.1898 231.71 58.1568L227.141 60.1875L222.572 62.2182C223.046 63.2851 223.693 64.2701 224.523 65.1323L228.125 61.6641ZM227.141 60.1875L231.756 58.2644C231.769 58.2966 231.779 58.3297 231.785 58.3584C231.79 58.3865 231.789 58.3967 231.789 58.3828H226.789H221.789C221.789 59.6492 222.024 60.9077 222.525 62.1106L227.141 60.1875ZM226.789 58.3828H231.789V42.6562H226.789H221.789V58.3828H226.789ZM226.789 42.6562H231.789C231.789 42.6424 231.79 42.6526 231.785 42.6807C231.779 42.7094 231.769 42.7425 231.756 42.7746L227.141 40.8516L222.525 38.9285C222.024 40.1313 221.789 41.3899 221.789 42.6562H226.789ZM227.141 40.8516L231.71 42.8823C231.721 42.8571 231.724 42.8558 231.714 42.8706C231.703 42.886 231.686 42.9089 231.661 42.934L228.125 39.3984L224.589 35.8629C223.719 36.7333 223.053 37.7379 222.572 38.8209L227.141 40.8516ZM228.125 39.3984L231.661 42.934C231.641 42.9538 231.614 42.976 231.584 42.9962C231.554 43.0162 231.532 43.0264 231.525 43.0294L229.602 38.4141L227.678 33.7987C226.526 34.2787 225.483 34.9692 224.589 35.8629L228.125 39.3984ZM229.602 38.4141L231.632 42.9831C231.597 42.9988 231.551 43.0146 231.499 43.0256C231.447 43.0365 231.406 43.0391 231.383 43.0391V38.0391V33.0391C230.069 33.0391 228.783 33.3064 227.571 33.845L229.602 38.4141ZM231.383 38.0391V43.0391H243.289V38.0391V33.0391H231.383V38.0391ZM243.289 38.0391V43.0391C243.282 43.0391 243.251 43.0382 243.203 43.0282C243.155 43.0182 243.106 43.0024 243.063 42.9831L245.094 38.4141L247.124 33.845C245.897 33.2993 244.6 33.0391 243.289 33.0391V38.0391ZM245.094 38.4141L243.171 43.0294C243.156 43.0233 243.121 43.0068 243.075 42.9755C243.028 42.944 242.984 42.9064 242.945 42.8666L246.547 39.3984L250.148 35.9302C249.248 34.995 248.185 34.2856 247.017 33.7987L245.094 38.4141ZM246.547 39.3984L243.079 43C243.039 42.9618 243.001 42.9172 242.97 42.8706C242.939 42.8245 242.922 42.7895 242.916 42.7746L247.531 40.8516L252.147 38.9285C251.66 37.76 250.95 36.6974 250.015 35.7968L246.547 39.3984ZM247.531 40.8516L242.962 42.8823C242.943 42.8389 242.927 42.7902 242.917 42.7418C242.907 42.6941 242.906 42.6632 242.906 42.6562H247.906H252.906C252.906 41.3452 252.646 40.0488 252.1 38.8209L247.531 40.8516ZM247.906 42.6562H242.906V52.875H247.906H252.906V42.6562H247.906ZM231.383 42.6562H226.383V48.2578H231.383H236.383V42.6562H231.383ZM231.383 48.2578V53.2578H243.289V48.2578V43.2578H231.383V48.2578ZM243.289 48.2578H248.289V42.6562H243.289H238.289V48.2578H243.289ZM243.289 42.6562V37.6562H231.383V42.6562V47.6562H243.289V42.6562ZM260.711 42.6562V37.6562H255.711V42.6562H260.711ZM260.711 58.3828H255.711V63.3828H260.711V58.3828ZM272.617 58.3828V63.3828H277.617V58.3828H272.617ZM272.617 54.1641V49.1641H267.617V54.1641H272.617ZM277.234 54.1641H282.234V49.1641H277.234V54.1641ZM276.859 60.1875L272.29 58.1568L272.267 58.2103L272.244 58.2644L276.859 60.1875ZM274.422 62.6484L276.345 67.2638L276.399 67.2413L276.453 67.2175L274.422 62.6484ZM258.93 62.6484L256.899 67.2175L256.953 67.2413L257.007 67.2638L258.93 62.6484ZM257.453 61.6641L253.852 65.1323L253.917 65.2002L253.985 65.2657L257.453 61.6641ZM256.469 60.1875L251.853 62.1106L251.876 62.1647L251.9 62.2182L256.469 60.1875ZM256.469 40.8516L251.9 38.8209L251.876 38.8744L251.853 38.9285L256.469 40.8516ZM258.93 38.4141L260.853 43.0294L260.907 43.0069L260.96 42.9831L258.93 38.4141ZM274.422 38.4141L272.391 42.9831L272.445 43.0069L272.499 43.0294L274.422 38.4141ZM275.875 39.3984L272.273 42.8666L272.339 42.9346L272.407 43L275.875 39.3984ZM276.859 40.8516L272.244 42.7746L272.267 42.8287L272.29 42.8823L276.859 40.8516ZM277.234 46.875V51.875H282.234V46.875H277.234ZM272.617 46.875H267.617V51.875H272.617V46.875ZM272.617 42.6562H277.617V37.6562H272.617V42.6562ZM260.711 42.6562H255.711V58.3828H260.711H265.711V42.6562H260.711ZM260.711 58.3828V63.3828H272.617V58.3828V53.3828H260.711V58.3828ZM272.617 58.3828H277.617V54.1641H272.617H267.617V58.3828H272.617ZM272.617 54.1641V59.1641H277.234V54.1641V49.1641H272.617V54.1641ZM277.234 54.1641H272.234V58.3828H277.234H282.234V54.1641H277.234ZM277.234 58.3828H272.234C272.234 58.3759 272.235 58.345 272.245 58.2972C272.255 58.2489 272.271 58.2002 272.29 58.1568L276.859 60.1875L281.428 62.2182C281.974 60.9903 282.234 59.6939 282.234 58.3828H277.234ZM276.859 60.1875L272.244 58.2644C272.247 58.2572 272.257 58.235 272.277 58.205C272.297 58.1748 272.32 58.1484 272.339 58.1285L275.875 61.6641L279.411 65.1996C280.304 64.3059 280.995 63.2627 281.475 62.1106L276.859 60.1875ZM275.875 61.6641L272.339 58.1285C272.364 58.1035 272.387 58.0856 272.403 58.0753C272.418 58.0652 272.416 58.0682 272.391 58.0794L274.422 62.6484L276.453 67.2175C277.536 66.7362 278.54 66.0699 279.411 65.1996L275.875 61.6641ZM274.422 62.6484L272.499 58.0331C272.531 58.0196 272.564 58.01 272.593 58.0044C272.621 57.9989 272.631 58 272.617 58V63V68C273.884 68 275.142 67.765 276.345 67.2638L274.422 62.6484ZM272.617 63V58H260.711V63V68H272.617V63ZM260.711 63V58C260.711 58 260.711 58 260.711 58C260.711 58 260.711 58 260.711 58C260.711 58 260.711 58 260.711 58C260.711 58 260.711 58 260.711 58C260.711 58 260.711 58 260.711 58C260.711 58 260.712 58 260.712 58C260.713 58 260.714 58.0001 260.715 58.0001C260.718 58.0003 260.722 58.0005 260.727 58.001C260.737 58.0019 260.75 58.0037 260.765 58.0067C260.798 58.0132 260.828 58.0229 260.853 58.0331L258.93 62.6484L257.007 67.2638C258.194 67.7587 259.443 68 260.711 68V63ZM258.93 62.6484L260.96 58.0794C260.927 58.0647 260.913 58.0554 260.912 58.0546C260.911 58.0539 260.912 58.0545 260.914 58.0563C260.917 58.058 260.919 58.0602 260.921 58.0625L257.453 61.6641L253.985 65.2657C254.847 66.0959 255.832 66.7433 256.899 67.2175L258.93 62.6484ZM257.453 61.6641L261.055 58.1959C261.057 58.1982 261.059 58.2007 261.061 58.2029C261.063 58.2051 261.063 58.206 261.063 58.205C261.062 58.2038 261.052 58.1898 261.038 58.1568L256.469 60.1875L251.9 62.2182C252.374 63.2851 253.021 64.2701 253.852 65.1323L257.453 61.6641ZM256.469 60.1875L261.084 58.2644C261.098 58.2966 261.107 58.3297 261.113 58.3584C261.118 58.3865 261.117 58.3967 261.117 58.3828H256.117H251.117C251.117 59.6492 251.352 60.9077 251.853 62.1106L256.469 60.1875ZM256.117 58.3828H261.117V42.6562H256.117H251.117V58.3828H256.117ZM256.117 42.6562H261.117C261.117 42.6424 261.118 42.6526 261.113 42.6807C261.107 42.7094 261.098 42.7425 261.084 42.7746L256.469 40.8516L251.853 38.9285C251.352 40.1313 251.117 41.3899 251.117 42.6562H256.117ZM256.469 40.8516L261.038 42.8823C261.049 42.8571 261.052 42.8558 261.042 42.8706C261.032 42.886 261.014 42.9089 260.989 42.934L257.453 39.3984L253.918 35.8629C253.047 36.7333 252.381 37.7379 251.9 38.8209L256.469 40.8516ZM257.453 39.3984L260.989 42.934C260.969 42.9538 260.942 42.976 260.912 42.9962C260.882 43.0162 260.86 43.0264 260.853 43.0294L258.93 38.4141L257.007 33.7987C255.854 34.2787 254.811 34.9692 253.918 35.8629L257.453 39.3984ZM258.93 38.4141L260.96 42.9831C260.925 42.9988 260.879 43.0146 260.827 43.0256C260.775 43.0365 260.734 43.0391 260.711 43.0391V38.0391V33.0391C259.397 33.0391 258.111 33.3064 256.899 33.845L258.93 38.4141ZM260.711 38.0391V43.0391H272.617V38.0391V33.0391H260.711V38.0391ZM272.617 38.0391V43.0391C272.61 43.0391 272.579 43.0382 272.532 43.0282C272.483 43.0182 272.435 43.0024 272.391 42.9831L274.422 38.4141L276.453 33.845C275.225 33.2993 273.928 33.0391 272.617 33.0391V38.0391ZM274.422 38.4141L272.499 43.0294C272.484 43.0233 272.449 43.0068 272.403 42.9755C272.356 42.944 272.312 42.9064 272.273 42.8666L275.875 39.3984L279.477 35.9302C278.576 34.995 277.513 34.2856 276.345 33.7987L274.422 38.4141ZM275.875 39.3984L272.407 43C272.367 42.9618 272.329 42.9172 272.298 42.8706C272.267 42.8245 272.25 42.7895 272.244 42.7746L276.859 40.8516L281.475 38.9285C280.988 37.76 280.278 36.6974 279.343 35.7968L275.875 39.3984ZM276.859 40.8516L272.29 42.8823C272.271 42.8389 272.255 42.7902 272.245 42.7418C272.235 42.6941 272.234 42.6632 272.234 42.6562H277.234H282.234C282.234 41.3452 281.974 40.0488 281.428 38.8209L276.859 40.8516ZM277.234 42.6562H272.234V46.875H277.234H282.234V42.6562H277.234ZM277.234 46.875V41.875H272.617V46.875V51.875H277.234V46.875ZM272.617 46.875H277.617V42.6562H272.617H267.617V46.875H272.617ZM272.617 42.6562V37.6562H260.711V42.6562V47.6562H272.617V42.6562ZM307.523 63V68H312.523V63H307.523ZM302.906 63H297.906V68H302.906V63ZM302.906 42.6562H307.906V37.6562H302.906V42.6562ZM290.039 42.6562V37.6562H285.039V42.6562H290.039ZM290.039 63V68H295.039V63H290.039ZM285.445 63H280.445V68H285.445V63ZM285.445 28.4297V23.4297H280.445V28.4297H285.445ZM290.039 28.4297H295.039V23.4297H290.039V28.4297ZM290.039 42.4453H285.039L295.033 42.7014L290.039 42.4453ZM290.461 40.7344L294.985 42.8634L294.997 42.8383L295.008 42.8132L290.461 40.7344ZM291.445 39.3281L294.911 42.9323L294.914 42.9297L291.445 39.3281ZM292.898 38.3906L294.755 43.033L294.812 43.0104L294.868 42.9864L292.898 38.3906ZM304.711 38.4141L302.68 42.9831L302.734 43.0069L302.788 43.0294L304.711 38.4141ZM306.164 39.3984L302.562 42.8666L302.628 42.9346L302.696 43L306.164 39.3984ZM307.148 40.8516L302.533 42.7746L302.556 42.8287L302.579 42.8823L307.148 40.8516ZM307.523 63V58H302.906V63V68H307.523V63ZM302.906 63H307.906V42.6562H302.906H297.906V63H302.906ZM302.906 42.6562V37.6562H290.039V42.6562V47.6562H302.906V42.6562ZM290.039 42.6562H285.039V63H290.039H295.039V42.6562H290.039ZM290.039 63V58H285.445V63V68H290.039V63ZM285.445 63H290.445V28.4297H285.445H280.445V63H285.445ZM285.445 28.4297V33.4297H290.039V28.4297V23.4297H285.445V28.4297ZM290.039 28.4297H285.039V42.4453H290.039H295.039V28.4297H290.039ZM290.039 42.4453L295.033 42.7014C295.033 42.7009 295.032 42.7062 295.031 42.7165C295.029 42.7268 295.027 42.7407 295.023 42.7576C295.014 42.7931 295.001 42.8299 294.985 42.8634L290.461 40.7344L285.937 38.6054C285.399 39.7476 285.109 40.9569 285.046 42.1892L290.039 42.4453ZM290.461 40.7344L295.008 42.8132C295.014 42.8018 295.009 42.8135 294.991 42.84C294.972 42.867 294.945 42.8996 294.911 42.9323L291.445 39.3281L287.98 35.724C287.091 36.579 286.407 37.5754 285.914 38.6556L290.461 40.7344ZM291.445 39.3281L294.914 42.9297C294.896 42.9469 294.869 42.969 294.836 42.9905C294.802 43.0121 294.773 43.0258 294.755 43.033L292.898 38.3906L291.041 33.7482C289.899 34.2053 288.867 34.87 287.977 35.7265L291.445 39.3281ZM292.898 38.3906L294.868 42.9864C294.822 43.0061 294.774 43.0209 294.729 43.0299C294.707 43.0341 294.69 43.0365 294.676 43.0378C294.67 43.0384 294.665 43.0387 294.662 43.0389C294.66 43.039 294.658 43.039 294.658 43.039C294.657 43.0391 294.657 43.0391 294.657 43.0391C294.656 43.0391 294.656 43.0391 294.656 43.0391C294.656 43.0391 294.656 43.0391 294.656 43.0391C294.656 43.0391 294.656 43.0391 294.656 43.0391C294.657 43.0391 294.656 43.0391 294.656 43.0391C294.657 43.0391 294.656 43.0391 294.656 43.0391V38.0391V33.0391C293.389 33.0391 292.129 33.2804 290.929 33.7949L292.898 38.3906ZM294.656 38.0391V43.0391H302.906V38.0391V33.0391H294.656V38.0391ZM302.906 38.0391V43.0391C302.899 43.0391 302.868 43.0382 302.821 43.0282C302.772 43.0182 302.724 43.0024 302.68 42.9831L304.711 38.4141L306.742 33.845C305.514 33.2993 304.217 33.0391 302.906 33.0391V38.0391ZM304.711 38.4141L302.788 43.0294C302.773 43.0233 302.738 43.0068 302.692 42.9755C302.645 42.944 302.601 42.9064 302.562 42.8666L306.164 39.3984L309.766 35.9302C308.865 34.995 307.803 34.2856 306.634 33.7987L304.711 38.4141ZM306.164 39.3984L302.696 43C302.656 42.9618 302.619 42.9172 302.587 42.8706C302.556 42.8245 302.539 42.7895 302.533 42.7746L307.148 40.8516L311.764 38.9285C311.277 37.76 310.567 36.6974 309.632 35.7968L306.164 39.3984ZM307.148 40.8516L302.579 42.8823C302.56 42.8389 302.544 42.7902 302.534 42.7418C302.524 42.6941 302.523 42.6632 302.523 42.6562H307.523H312.523C312.523 41.3452 312.263 40.0488 311.717 38.8209L307.148 40.8516ZM307.523 42.6562H302.523V63H307.523H312.523V42.6562H307.523ZM320.984 29.3906H325.984V24.3906H320.984V29.3906ZM320.984 58.1953H315.984V63.1953H320.984V58.1953ZM338.258 58.1953H343.258V53.1953H338.258V58.1953ZM338.258 63V68H343.258V63H338.258ZM316.18 63H311.18V68H316.18V63ZM316.18 29.3906V24.3906H311.18V29.3906H316.18ZM320.984 29.3906H315.984V58.1953H320.984H325.984V29.3906H320.984ZM320.984 58.1953V63.1953H338.258V58.1953V53.1953H320.984V58.1953ZM338.258 58.1953H333.258V63H338.258H343.258V58.1953H338.258ZM338.258 63V58H316.18V63V68H338.258V63ZM316.18 63H321.18V29.3906H316.18H311.18V63H316.18ZM316.18 29.3906V34.3906H320.984V29.3906V24.3906H316.18V29.3906ZM344.406 50.3203L339.837 48.2896L339.824 48.3201L339.811 48.3507L344.406 50.3203ZM345.391 48.8438L341.855 45.3082L341.822 45.3416L341.789 45.3755L345.391 48.8438ZM346.867 47.8594L348.79 52.4748L348.844 52.4522L348.898 52.4284L346.867 47.8594ZM360.555 47.4844V52.4844H365.555V47.4844H360.555ZM360.555 42.6562H365.555V37.6562H360.555V42.6562ZM345.484 42.6562H340.484V47.6562H345.484V42.6562ZM345.484 38.0391V33.0391H340.484V38.0391H345.484ZM362.359 38.4141L360.329 42.9831L360.382 43.0069L360.436 43.0294L362.359 38.4141ZM363.812 39.3984L360.211 42.8666L360.276 42.9346L360.344 43L363.812 39.3984ZM364.797 40.8516L360.181 42.7746L360.204 42.8287L360.228 42.8823L364.797 40.8516ZM365.172 63V68H370.172V63H365.172ZM360.555 63H355.555V68H360.555V63ZM360.555 58.7812H365.555L355.571 58.3772L360.555 58.7812ZM359.055 61.7812L362.446 65.4553L362.452 65.4501L359.055 61.7812ZM346.867 62.6484L344.836 67.2175L344.89 67.2413L344.944 67.2638L346.867 62.6484ZM345.391 61.6641L341.789 65.1323L341.854 65.2002L341.922 65.2657L345.391 61.6641ZM344.406 60.1875L339.791 62.1106L339.813 62.1647L339.837 62.2182L344.406 60.1875ZM348.648 58.3828H343.648V63.3828H348.648V58.3828ZM360.555 58.3828V63.3828H365.555V58.3828H360.555ZM360.555 52.1016H365.555V47.1016H360.555V52.1016ZM348.648 52.1016V47.1016H343.648V52.1016H348.648ZM344.055 52.1016H349.055C349.055 52.0874 349.056 52.1039 349.048 52.1439C349.04 52.1849 349.025 52.2358 349.002 52.2899L344.406 50.3203L339.811 48.3507C339.289 49.5665 339.055 50.8364 339.055 52.1016H344.055ZM344.406 50.3203L348.975 52.351C348.99 52.318 348.999 52.304 349 52.3028C349.001 52.3018 349 52.3027 348.998 52.3049C348.997 52.3071 348.995 52.3096 348.992 52.312L345.391 48.8438L341.789 45.3755C340.959 46.2377 340.311 47.2227 339.837 48.2896L344.406 50.3203ZM345.391 48.8438L348.926 52.3793C348.906 52.3992 348.88 52.4214 348.85 52.4415C348.82 52.4615 348.798 52.4717 348.79 52.4748L346.867 47.8594L344.944 43.244C343.792 43.7241 342.749 44.4145 341.855 45.3082L345.391 48.8438ZM346.867 47.8594L348.898 52.4284C348.863 52.4441 348.817 52.4599 348.764 52.4709C348.713 52.4818 348.672 52.4844 348.648 52.4844V47.4844V42.4844C347.335 42.4844 346.048 42.7517 344.836 43.2903L346.867 47.8594ZM348.648 47.4844V52.4844H360.555V47.4844V42.4844H348.648V47.4844ZM360.555 47.4844H365.555V42.6562H360.555H355.555V47.4844H360.555ZM360.555 42.6562V37.6562H345.484V42.6562V47.6562H360.555V42.6562ZM345.484 42.6562H350.484V38.0391H345.484H340.484V42.6562H345.484ZM345.484 38.0391V43.0391H360.555V38.0391V33.0391H345.484V38.0391ZM360.555 38.0391V43.0391C360.548 43.0391 360.517 43.0382 360.469 43.0282C360.421 43.0182 360.372 43.0024 360.329 42.9831L362.359 38.4141L364.39 33.845C363.162 33.2993 361.866 33.0391 360.555 33.0391V38.0391ZM362.359 38.4141L360.436 43.0294C360.421 43.0233 360.386 43.0068 360.34 42.9755C360.294 42.944 360.249 42.9064 360.211 42.8666L363.812 39.3984L367.414 35.9302C366.514 34.995 365.451 34.2856 364.282 33.7987L362.359 38.4141ZM363.812 39.3984L360.344 43C360.305 42.9618 360.267 42.9172 360.235 42.8706C360.204 42.8245 360.188 42.7895 360.181 42.7746L364.797 40.8516L369.412 38.9285C368.925 37.76 368.216 36.6974 367.281 35.7968L363.812 39.3984ZM364.797 40.8516L360.228 42.8823C360.209 42.8389 360.193 42.7902 360.183 42.7418C360.173 42.6941 360.172 42.6632 360.172 42.6562H365.172H370.172C370.172 41.3452 369.912 40.0488 369.366 38.8209L364.797 40.8516ZM365.172 42.6562H360.172V63H365.172H370.172V42.6562H365.172ZM365.172 63V58H360.555V63V68H365.172V63ZM360.555 63H365.555V58.7812H360.555H355.555V63H360.555ZM360.555 58.7812L355.571 58.3772C355.574 58.3446 355.581 58.3008 355.595 58.2514C355.609 58.202 355.626 58.1612 355.641 58.1321L360.086 60.4219L364.531 62.7117C365.099 61.6092 365.438 60.4214 365.538 59.1853L360.555 58.7812ZM360.086 60.4219L355.641 58.1321C355.639 58.1356 355.639 58.1362 355.64 58.1346C355.641 58.133 355.643 58.1301 355.645 58.1265C355.648 58.1229 355.651 58.1195 355.654 58.1166C355.656 58.1138 355.658 58.1124 355.658 58.1124L359.055 61.7812L362.452 65.4501C363.304 64.6607 364.001 63.7398 364.531 62.7117L360.086 60.4219ZM359.055 61.7812L355.663 58.1072C355.683 58.0894 355.704 58.0734 355.723 58.0611C355.742 58.0489 355.752 58.0457 355.745 58.0485L357.648 62.6719L359.552 67.2953C360.61 66.8597 361.587 66.2481 362.446 65.4553L359.055 61.7812ZM357.648 62.6719L355.745 58.0485C355.785 58.0321 355.829 58.0186 355.874 58.0099C355.918 58.0013 355.949 58 355.961 58V63V68C357.185 68 358.397 67.771 359.552 67.2953L357.648 62.6719ZM355.961 63V58H348.648V63V68H355.961V63ZM348.648 63V58C348.648 58 348.649 58 348.648 58C348.648 58 348.649 58 348.648 58C348.648 58 348.648 58 348.648 58C348.648 58 348.648 58 348.648 58C348.649 58 348.649 58 348.649 58C348.649 58 348.649 58 348.65 58C348.65 58 348.651 58.0001 348.653 58.0001C348.655 58.0003 348.659 58.0005 348.664 58.001C348.674 58.0019 348.687 58.0037 348.703 58.0067C348.735 58.0132 348.766 58.0229 348.79 58.0331L346.867 62.6484L344.944 67.2638C346.132 67.7587 347.381 68 348.648 68V63ZM346.867 62.6484L348.898 58.0794C348.865 58.0647 348.851 58.0554 348.85 58.0546C348.849 58.0539 348.85 58.0545 348.852 58.0563C348.854 58.058 348.856 58.0602 348.859 58.0625L345.391 61.6641L341.922 65.2657C342.785 66.0959 343.77 66.7433 344.836 67.2175L346.867 62.6484ZM345.391 61.6641L348.992 58.1959C348.995 58.1982 348.997 58.2007 348.998 58.2029C349 58.2051 349.001 58.206 349 58.205C348.999 58.2038 348.99 58.1898 348.975 58.1568L344.406 60.1875L339.837 62.2182C340.311 63.2851 340.959 64.2701 341.789 65.1323L345.391 61.6641ZM344.406 60.1875L349.022 58.2644C349.035 58.2966 349.045 58.3297 349.05 58.3584C349.056 58.3865 349.055 58.3967 349.055 58.3828H344.055H339.055C339.055 59.6492 339.29 60.9077 339.791 62.1106L344.406 60.1875ZM344.055 58.3828H349.055V52.1016H344.055H339.055V58.3828H344.055ZM348.648 58.3828V63.3828H360.555V58.3828V53.3828H348.648V58.3828ZM360.555 58.3828H365.555V52.1016H360.555H355.555V58.3828H360.555ZM360.555 52.1016V47.1016H348.648V52.1016V57.1016H360.555V52.1016ZM348.648 52.1016H343.648V58.3828H348.648H353.648V52.1016H348.648ZM395.086 60.1875L390.517 58.1568L390.493 58.2103L390.471 58.2644L395.086 60.1875ZM392.648 62.6484L394.572 67.2638L394.626 67.2413L394.679 67.2175L392.648 62.6484ZM376.195 62.6484L374.165 67.2175L374.218 67.2413L374.272 67.2638L376.195 62.6484ZM374.719 61.6641L371.117 65.1323L371.183 65.2002L371.251 65.2657L374.719 61.6641ZM373.734 60.1875L369.119 62.1106L369.142 62.1647L369.165 62.2182L373.734 60.1875ZM373.383 28.4297V23.4297H368.383V28.4297H373.383ZM377.977 28.4297H382.977V23.4297H377.977V28.4297ZM377.977 42.4453H372.977L382.97 42.7014L377.977 42.4453ZM378.398 40.7344L382.923 42.8634L382.934 42.8383L382.946 42.8132L378.398 40.7344ZM379.383 39.3281L382.848 42.9323L382.851 42.9297L379.383 39.3281ZM380.836 38.3906L382.693 43.033L382.75 43.0104L382.806 42.9864L380.836 38.3906ZM392.648 38.4141L390.618 42.9831L390.671 43.0069L390.725 43.0294L392.648 38.4141ZM394.102 39.3984L390.5 42.8666L390.565 42.9346L390.633 43L394.102 39.3984ZM395.086 40.8516L390.471 42.7746L390.493 42.8287L390.517 42.8823L395.086 40.8516ZM377.977 42.6562V37.6562H372.977V42.6562H377.977ZM377.977 58.3828H372.977V63.3828H377.977V58.3828ZM390.844 58.3828V63.3828H395.844V58.3828H390.844ZM390.844 42.6562H395.844V37.6562H390.844V42.6562ZM395.461 58.3828H390.461C390.461 58.3759 390.462 58.345 390.472 58.2972C390.482 58.2489 390.498 58.2002 390.517 58.1568L395.086 60.1875L399.655 62.2182C400.201 60.9903 400.461 59.6939 400.461 58.3828H395.461ZM395.086 60.1875L390.471 58.2644C390.474 58.2572 390.484 58.235 390.504 58.205C390.524 58.1748 390.546 58.1484 390.566 58.1285L394.102 61.6641L397.637 65.1996C398.531 64.3059 399.221 63.2627 399.701 62.1106L395.086 60.1875ZM394.102 61.6641L390.566 58.1285C390.591 58.1035 390.614 58.0856 390.629 58.0753C390.644 58.0652 390.643 58.0682 390.618 58.0794L392.648 62.6484L394.679 67.2175C395.762 66.7362 396.767 66.0699 397.637 65.1996L394.102 61.6641ZM392.648 62.6484L390.725 58.0331C390.758 58.0196 390.791 58.01 390.819 58.0044C390.847 57.9989 390.858 58 390.844 58V63V68C392.11 68 393.369 67.765 394.572 67.2638L392.648 62.6484ZM390.844 63V58H377.977V63V68H390.844V63ZM377.977 63V58C377.976 58 377.977 58 377.977 58C377.976 58 377.977 58 377.977 58C377.977 58 377.977 58 377.977 58C377.977 58 377.977 58 377.977 58C377.977 58 377.977 58 377.977 58C377.977 58 377.977 58 377.978 58C377.978 58 377.979 58.0001 377.981 58.0001C377.983 58.0003 377.987 58.0005 377.992 58.001C378.002 58.0019 378.015 58.0037 378.031 58.0067C378.063 58.0132 378.094 58.0229 378.118 58.0331L376.195 62.6484L374.272 67.2638C375.46 67.7587 376.709 68 377.977 68V63ZM376.195 62.6484L378.226 58.0794C378.193 58.0647 378.179 58.0554 378.178 58.0546C378.177 58.0539 378.178 58.0545 378.18 58.0563C378.182 58.058 378.185 58.0602 378.187 58.0625L374.719 61.6641L371.251 65.2657C372.113 66.0959 373.098 66.7433 374.165 67.2175L376.195 62.6484ZM374.719 61.6641L378.32 58.1959C378.323 58.1982 378.325 58.2007 378.327 58.2029C378.328 58.2051 378.329 58.206 378.328 58.205C378.327 58.2038 378.318 58.1898 378.303 58.1568L373.734 60.1875L369.165 62.2182C369.639 63.2851 370.287 64.2701 371.117 65.1323L374.719 61.6641ZM373.734 60.1875L378.35 58.2644C378.363 58.2966 378.373 58.3297 378.378 58.3584C378.384 58.3865 378.383 58.3967 378.383 58.3828H373.383H368.383C368.383 59.6492 368.618 60.9077 369.119 62.1106L373.734 60.1875ZM373.383 58.3828H378.383V28.4297H373.383H368.383V58.3828H373.383ZM373.383 28.4297V33.4297H377.977V28.4297V23.4297H373.383V28.4297ZM377.977 28.4297H372.977V42.4453H377.977H382.977V28.4297H377.977ZM377.977 42.4453L382.97 42.7014C382.97 42.7009 382.97 42.7062 382.968 42.7165C382.967 42.7268 382.964 42.7407 382.96 42.7576C382.951 42.7931 382.938 42.8299 382.923 42.8634L378.398 40.7344L373.874 38.6054C373.337 39.7476 373.046 40.9569 372.983 42.1892L377.977 42.4453ZM378.398 40.7344L382.946 42.8132C382.951 42.8018 382.947 42.8135 382.928 42.84C382.909 42.867 382.882 42.8996 382.848 42.9323L379.383 39.3281L375.917 35.724C375.028 36.579 374.345 37.5754 373.851 38.6556L378.398 40.7344ZM379.383 39.3281L382.851 42.9297C382.833 42.9469 382.807 42.969 382.773 42.9905C382.74 43.0121 382.711 43.0258 382.693 43.033L380.836 38.3906L378.979 33.7482C377.836 34.2053 376.804 34.87 375.915 35.7265L379.383 39.3281ZM380.836 38.3906L382.806 42.9864C382.759 43.0061 382.711 43.0209 382.666 43.0299C382.645 43.0341 382.627 43.0365 382.614 43.0378C382.608 43.0384 382.603 43.0387 382.599 43.0389C382.597 43.039 382.596 43.039 382.595 43.039C382.595 43.0391 382.594 43.0391 382.594 43.0391C382.594 43.0391 382.594 43.0391 382.594 43.0391C382.594 43.0391 382.594 43.0391 382.594 43.0391C382.594 43.0391 382.594 43.0391 382.594 43.0391C382.594 43.0391 382.593 43.0391 382.594 43.0391C382.594 43.0391 382.593 43.0391 382.594 43.0391V38.0391V33.0391C381.326 33.0391 380.067 33.2804 378.866 33.7949L380.836 38.3906ZM382.594 38.0391V43.0391H390.844V38.0391V33.0391H382.594V38.0391ZM390.844 38.0391V43.0391C390.837 43.0391 390.806 43.0382 390.758 43.0282C390.71 43.0182 390.661 43.0024 390.618 42.9831L392.648 38.4141L394.679 33.845C393.451 33.2993 392.155 33.0391 390.844 33.0391V38.0391ZM392.648 38.4141L390.725 43.0294C390.711 43.0233 390.675 43.0068 390.629 42.9755C390.583 42.944 390.538 42.9064 390.5 42.8666L394.102 39.3984L397.703 35.9302C396.803 34.995 395.74 34.2856 394.572 33.7987L392.648 38.4141ZM394.102 39.3984L390.633 43C390.594 42.9618 390.556 42.9172 390.524 42.8706C390.493 42.8245 390.477 42.7895 390.471 42.7746L395.086 40.8516L399.701 38.9285C399.214 37.76 398.505 36.6974 397.57 35.7968L394.102 39.3984ZM395.086 40.8516L390.517 42.8823C390.498 42.8389 390.482 42.7902 390.472 42.7418C390.462 42.6941 390.461 42.6632 390.461 42.6562H395.461H400.461C400.461 41.3452 400.201 40.0488 399.655 38.8209L395.086 40.8516ZM395.461 42.6562H390.461V58.3828H395.461H400.461V42.6562H395.461ZM377.977 42.6562H372.977V58.3828H377.977H382.977V42.6562H377.977ZM377.977 58.3828V63.3828H390.844V58.3828V53.3828H377.977V58.3828ZM390.844 58.3828H395.844V42.6562H390.844H385.844V58.3828H390.844ZM390.844 42.6562V37.6562H377.977V42.6562V47.6562H390.844V42.6562Z" fill="#EEEEEE" mask="url(#path-1-outside-1_147_36)"/>
<g clip-path="url(#clip1_147_36)">
<circle cx="29.5" cy="44.5" r="26.4271" stroke="url(#paint1_linear_147_36)" stroke-width="6.14583"/>
<path d="M17.2083 41.4271H41.7916L39.1797 66.0104H20.8958L17.2083 41.4271Z" fill="url(#paint2_linear_147_36)"/>
<path d="M32.8802 26.0625H37.4896V41.4271H32.8802V26.0625Z" fill="url(#paint3_linear_147_36)"/>
<circle cx="20.2812" cy="36.8177" r="2.30469" fill="white" stroke="#87CEFA" stroke-width="1.53646"/>
<circle cx="20.2812" cy="27.599" r="2.30469" fill="white" stroke="#87CEFA" stroke-width="1.53646"/>
<circle cx="28.2709" cy="33.7448" r="2.30469" fill="white" stroke="#87CEFA" stroke-width="1.53646"/>
</g>
</g>
<defs>
<linearGradient id="paint0_linear_147_36" x1="230.5" y1="27" x2="230.5" y2="74" gradientUnits="userSpaceOnUse">
<stop stop-color="#00BFFF"/>
<stop offset="1" stop-color="#87CEFA"/>
</linearGradient>
<linearGradient id="paint1_linear_147_36" x1="29.5" y1="15" x2="29.5" y2="74" gradientUnits="userSpaceOnUse">
<stop stop-color="#00BFFF"/>
<stop offset="1" stop-color="#EEEEEE"/>
</linearGradient>
<linearGradient id="paint2_linear_147_36" x1="29.5" y1="26.0625" x2="29.5" y2="66.0104" gradientUnits="userSpaceOnUse">
<stop stop-color="#EEEEEE"/>
<stop offset="1" stop-color="#00BFFF"/>
</linearGradient>
<linearGradient id="paint3_linear_147_36" x1="29.5" y1="26.0625" x2="29.5" y2="66.0104" gradientUnits="userSpaceOnUse">
<stop stop-color="#EEEEEE"/>
<stop offset="1" stop-color="#00BFFF"/>
</linearGradient>
<clipPath id="clip0_147_36">
<rect width="400" height="100" fill="white"/>
</clipPath>
<clipPath id="clip1_147_36">
<rect width="59" height="59" fill="white" transform="translate(0 15)"/>
</clipPath>
</defs>
</svg>
