<svg width="48" height="48" viewBox="0 0 48 48" fill="none" xmlns="http://www.w3.org/2000/svg">
<g clip-path="url(#clip0_178_25)">
<rect width="48" height="48" rx="5" fill="#F5F5F5"/>
<path d="M25.4142 3.58579C24.6332 2.80474 23.3668 2.80474 22.5858 3.58579L9.85786 16.3137C9.07682 17.0948 9.07682 18.3611 9.85786 19.1421C10.6389 19.9232 11.9052 19.9232 12.6863 19.1421L24 7.82843L35.3137 19.1421C36.0948 19.9232 37.3611 19.9232 38.1421 19.1421C38.9232 18.3611 38.9232 17.0948 38.1421 16.3137L25.4142 3.58579ZM24 24H26L26 5H24H22L22 24H24Z" fill="black"/>
<path d="M10.9238 33V25.8418H13.2432C14.1221 25.8418 14.695 25.8776 14.9619 25.9492C15.3721 26.0566 15.7155 26.291 15.9922 26.6523C16.2689 27.0104 16.4072 27.4743 16.4072 28.0439C16.4072 28.4834 16.3275 28.8529 16.168 29.1523C16.0085 29.4518 15.805 29.6878 15.5576 29.8604C15.3135 30.0296 15.0645 30.1419 14.8105 30.1973C14.4655 30.2656 13.9658 30.2998 13.3115 30.2998H12.3691V33H10.9238ZM12.3691 27.0527V29.084H13.1602C13.7298 29.084 14.1107 29.0465 14.3027 28.9717C14.4948 28.8968 14.6445 28.7796 14.752 28.6201C14.8626 28.4606 14.918 28.2751 14.918 28.0635C14.918 27.8031 14.8415 27.5882 14.6885 27.4189C14.5355 27.2497 14.3418 27.1439 14.1074 27.1016C13.9349 27.069 13.5882 27.0527 13.0674 27.0527H12.3691ZM23.3066 33H21.7344L21.1094 31.374H18.248L17.6572 33H16.124L18.9121 25.8418H20.4404L23.3066 33ZM20.6455 30.168L19.6592 27.5117L18.6924 30.168H20.6455ZM27.4082 30.3682V29.1621H30.5234V32.0137C30.2207 32.3066 29.7812 32.5654 29.2051 32.79C28.6322 33.0114 28.0511 33.1221 27.4619 33.1221C26.7132 33.1221 26.0605 32.9658 25.5039 32.6533C24.9473 32.3376 24.529 31.8883 24.249 31.3057C23.9691 30.7197 23.8291 30.0833 23.8291 29.3965C23.8291 28.651 23.9854 27.9886 24.2979 27.4092C24.6104 26.8298 25.0677 26.3854 25.6699 26.0762C26.1289 25.8385 26.7002 25.7197 27.3838 25.7197C28.2725 25.7197 28.9658 25.9069 29.4639 26.2812C29.9652 26.6523 30.2874 27.1667 30.4307 27.8242L28.9951 28.0928C28.8942 27.7412 28.7038 27.4645 28.4238 27.2627C28.1471 27.0576 27.8005 26.9551 27.3838 26.9551C26.7523 26.9551 26.2493 27.1553 25.875 27.5557C25.5039 27.9561 25.3184 28.5501 25.3184 29.3379C25.3184 30.1875 25.5072 30.8255 25.8848 31.252C26.2624 31.6751 26.7572 31.8867 27.3691 31.8867C27.6719 31.8867 27.9746 31.8281 28.2773 31.7109C28.5833 31.5905 28.8454 31.4456 29.0635 31.2764V30.3682H27.4082ZM31.8613 33V25.8418H37.1689V27.0527H33.3066V28.6396H36.9004V29.8457H33.3066V31.7939H37.3057V33H31.8613ZM16.1484 44V38.0527H14.0244V36.8418H19.7129V38.0527H17.5938V44H16.1484ZM20.1719 40.4648C20.1719 39.7357 20.2809 39.1237 20.499 38.6289C20.6618 38.2643 20.8831 37.9372 21.1631 37.6475C21.4463 37.3577 21.7555 37.1429 22.0908 37.0029C22.5368 36.8141 23.0511 36.7197 23.6338 36.7197C24.6885 36.7197 25.5316 37.0469 26.1631 37.7012C26.7979 38.3555 27.1152 39.2653 27.1152 40.4307C27.1152 41.5863 26.8011 42.4912 26.1729 43.1455C25.5446 43.7965 24.7048 44.1221 23.6533 44.1221C22.5889 44.1221 21.7425 43.7982 21.1143 43.1504C20.486 42.4993 20.1719 41.6042 20.1719 40.4648ZM21.6611 40.416C21.6611 41.2266 21.8483 41.8418 22.2227 42.2617C22.597 42.6784 23.0723 42.8867 23.6484 42.8867C24.2246 42.8867 24.6966 42.68 25.0645 42.2666C25.4355 41.8499 25.6211 41.2266 25.6211 40.3965C25.6211 39.5762 25.4404 38.9642 25.0791 38.5605C24.721 38.1569 24.2441 37.9551 23.6484 37.9551C23.0527 37.9551 22.5726 38.1602 22.208 38.5703C21.8434 38.9772 21.6611 39.5924 21.6611 40.416ZM28.248 44V36.8418H30.5674C31.4463 36.8418 32.0192 36.8776 32.2861 36.9492C32.6963 37.0566 33.0397 37.291 33.3164 37.6523C33.5931 38.0104 33.7314 38.4743 33.7314 39.0439C33.7314 39.4834 33.6517 39.8529 33.4922 40.1523C33.3327 40.4518 33.1292 40.6878 32.8818 40.8604C32.6377 41.0296 32.3887 41.1419 32.1348 41.1973C31.7897 41.2656 31.29 41.2998 30.6357 41.2998H29.6934V44H28.248ZM29.6934 38.0527V40.084H30.4844C31.054 40.084 31.4349 40.0465 31.627 39.9717C31.819 39.8968 31.9688 39.7796 32.0762 39.6201C32.1868 39.4606 32.2422 39.2751 32.2422 39.0635C32.2422 38.8031 32.1657 38.5882 32.0127 38.4189C31.8597 38.2497 31.666 38.1439 31.4316 38.1016C31.2591 38.069 30.9124 38.0527 30.3916 38.0527H29.6934Z" fill="black"/>
</g>
<defs>
<clipPath id="clip0_178_25">
<rect width="48" height="48" fill="white"/>
</clipPath>
</defs>
</svg>
